HIERARCHY
ROOT Hips
{
  OFFSET 196.326 95.9168 97.7182
  CHANNELS 6 Xposition Yposition Zposition Zrotation Xrotation Yrotation
  JOINT LeftUpLeg
  {
    OFFSET 8.64259 1.95398 -2.38835
    CHANNELS 3 Zrotation Xrotation Yrotation
    JOINT LeftLeg
    {
      OFFSET 43.7702 0 0
      CHANNELS 3 Zrotation Xrotation Yrotation
      JOINT LeftFoot
      {
        OFFSET 40.6238 0 0
        CHANNELS 3 Zrotation Xrotation Yrotation
        JOINT LeftToeBase
        {
          OFFSET 12.7242 0 0
          CHANNELS 3 Zrotation Xrotation Yrotation
          End Site
          {
            OFFSET 0 0 0
          }
        }
      }
    }
  }
  JOINT RightUpLeg
  {
    OFFSET -8.2249 1.95398 -2.59336
    CHANNELS 3 Zrotation Xrotation Yrotation
    JOINT RightLeg
    {
      OFFSET 43.5653 0 0
      CHANNELS 3 Zrotation Xrotation Yrotation
      JOINT RightFoot
      {
        OFFSET 40.6238 0 0
        CHANNELS 3 Zrotation Xrotation Yrotation
        JOINT RightToeBase
        {
          OFFSET 12.7242 0 0
          CHANNELS 3 Zrotation Xrotation Yrotation
          End Site
          {
            OFFSET 0 0 0
          }
        }
      }
    }
  }
  JOINT Spine
  {
    OFFSET 0.165834 0.87714 6.61349
    CHANNELS 3 Zrotation Xrotation Yrotation
    JOINT Spine1
    {
      OFFSET 7.38963 1.71661e-005 0
      CHANNELS 3 Zrotation Xrotation Yrotation
      JOINT Spine2
      {
        OFFSET 11.9445 1.14441e-005 0
        CHANNELS 3 Zrotation Xrotation Yrotation
        JOINT Spine3
        {
          OFFSET 14.7254 4.19617e-005 0
          CHANNELS 3 Zrotation Xrotation Yrotation
          JOINT Spine4
          {
            OFFSET 10.9679 0 0
            CHANNELS 3 Zrotation Xrotation Yrotation
            JOINT RightShoulder
            {
              OFFSET 2.46616 -1.6653 3.69651
              CHANNELS 3 Zrotation Xrotation Yrotation
              JOINT RightArm
              {
                OFFSET 13.0012 0 0
                CHANNELS 3 Zrotation Xrotation Yrotation
                JOINT RightForeArm
                {
                  OFFSET 28.7848 1.52588e-005 0
                  CHANNELS 3 Zrotation Xrotation Yrotation
                  JOINT RightHand
                  {
                    OFFSET 26.5688 1.52588e-005 0
                    CHANNELS 3 Zrotation Xrotation Yrotation
                    End Site
                    {
                      OFFSET 0 0 0
                    }
                  }
                }
              }
            }
            JOINT LeftShoulder
            {
              OFFSET 2.38034 -1.29275 -3.75231
              CHANNELS 3 Zrotation Xrotation Yrotation
              JOINT LeftArm
              {
                OFFSET 16.3182 6.10351e-005 0
                CHANNELS 3 Zrotation Xrotation Yrotation
                JOINT LeftForeArm
                {
                  OFFSET 27.0901 0 0
                  CHANNELS 3 Zrotation Xrotation Yrotation
                  JOINT LeftHand
                  {
                    OFFSET 24.5451 1.52588e-005 0
                    CHANNELS 3 Zrotation Xrotation Yrotation
                    End Site
                    {
                      OFFSET 0 0 0
                    }
                  }
                }
              }
            }
            JOINT Neck
            {
              OFFSET 5.0226 -0.0266342 0
              CHANNELS 3 Zrotation Xrotation Yrotation
              JOINT Head
              {
                OFFSET 6.69363 2.86102e-005 0
                CHANNELS 3 Zrotation Xrotation Yrotation
                End Site
                {
                  OFFSET 0 0 0
                }
              }
            }
          }
        }
      }
    }
  }
}
MOTION
Frames:	13
Frame Time:	0.0416667
-46.7462 97.0865 40.4545 -62.3051 -84.1125 -61.5246 -171.521 6.09846 92.1275 -6.16845 6.11316 -0.589714 58.432 4.02977 12.945 37.7875 8.49999 -30.9949 178.397 7.45013 89.8001 -10.623 7.78243 -0.680952 61.2417 -1.00509 -0.461484 33.0332 -0.151244 16.0472 0.0520492 6.58326 -90.1616 13.7073 0.0246693 -0.32706 2.03629 0.0102599 -0.327834 -20.4986 0.121819 -0.30453 -0.485922 0.121825 -0.30453 81.267 -49.6513 -114.147 26.7262 -12.6185 4.14118 -2.86343 -13.3909 -37.4367 -6.90417 -0.605307 4.13501 -101.393 -42.7064 58.9666 -29.2801 12.7146 1.14466 1.96295 9.76834 -29.8256 10.4925 1.38006 8.61856 14.5057 4.77592 1.53478 -7.29323 4.22448 2.51764 
-46.7466 97.0583 40.4976 -60.9028 -84.6386 -60.4539 -171.633 5.96476 91.8016 -6.16547 6.097 -0.608984 58.4307 4.01713 12.8738 37.9957 8.59486 -31.8905 178.08 7.16164 89.403 -10.6035 7.70342 -0.576669 61.9536 -1.22422 -0.604585 32.9589 -0.151918 15.5067 -0.0166611 6.59971 -90.1259 13.6743 -0.0941563 -0.239675 2.00338 -0.104612 -0.235305 -20.5316 -0.0177696 -0.256898 -0.518958 -0.017765 -0.25689 81.2746 -49.6177 -114.149 26.8147 -12.6469 4.15972 -2.93579 -13.5627 -37.3658 -7.48857 -0.677473 4.71244 -101.493 -42.7507 58.8311 -29.2332 12.5902 1.29454 1.98932 9.49656 -30.0299 10.2221 1.39197 9.14223 13.5857 3.56755 2.65285 -6.46406 2.79492 0.948767 
-46.6918 96.9533 40.5568 -62.5047 -85.0187 -62.2822 -171.682 5.82527 91.5767 -6.61032 6.01723 -0.639155 58.7517 4.17855 12.9942 38.0996 8.61864 -32.8366 177.806 6.19461 89.1249 -9.73069 7.04433 -0.525536 63.2969 -1.76894 -0.948549 31.4688 -0.428388 14.997 -0.0524902 6.63945 -90.0956 13.5949 -0.150478 -0.171948 1.92392 -0.157892 -0.165162 -20.6112 -0.0918452 -0.209225 -0.598544 -0.0918423 -0.209226 81.3317 -49.5156 -114.103 26.9858 -12.6571 4.13524 -3.05398 -13.7614 -37.4086 -7.37006 -0.707022 5.41116 -101.434 -42.6902 58.8945 -29.2984 12.7827 1.2883 2.15098 10.9126 -29.144 12.1377 1.08638 4.80745 14.2237 2.94014 1.75194 -6.5504 2.40185 1.82452 
-46.7193 96.7877 40.5936 -61.9612 -84.9895 -61.7745 -171.731 6.49297 91.5204 -7.96915 5.87473 -0.59713 59.5997 4.41876 13.0521 37.9284 8.50047 -33.1643 177.65 5.13202 89.0453 -7.9465 6.01412 -0.418142 64.8027 -2.60424 -1.45369 29.5864 -0.727937 13.8262 -0.0527077 6.6323 -90.0926 13.6083 -0.149494 -0.166108 1.93738 -0.156649 -0.159373 -20.5977 -0.0926571 -0.203369 -0.585086 -0.0926498 -0.203351 81.305 -49.5778 -114.119 26.8992 -12.6202 4.13928 -3.16753 -13.7617 -37.2829 -7.06861 -0.668502 5.11998 -101.528 -42.7343 58.7691 -29.2433 12.7316 1.36731 2.14282 10.8559 -29.1116 11.911 1.08815 5.01638 14.2515 2.93446 1.80494 -6.83682 2.37777 1.85005 
-46.7011 96.5804 40.5104 -62.1223 -84.8684 -61.8385 -171.778 7.51024 91.5783 -9.90281 5.81176 -0.544864 60.6333 4.60772 13.1577 37.7376 8.38746 -33.077 177.596 4.44471 89.1109 -6.81459 4.88184 -0.333736 66.8549 -3.49799 -1.95364 27.4329 -1.03285 12.6095 -0.0395455 6.6397 -90.1041 13.6155 -0.128867 -0.191484 1.94453 -0.137172 -0.185636 -20.5905 -0.0653661 -0.221362 -0.577873 -0.0653579 -0.221362 81.257 -49.6267 -114.172 26.8828 -12.5699 4.31962 -2.83394 -13.8669 -37.5962 -7.52351 -0.710382 5.25622 -101.573 -42.7315 58.6985 -29.2869 12.6749 1.39904 2.19732 10.9741 -29.1 12.096 1.11843 5.1327 14.079 2.80874 1.83249 -6.60976 2.25534 1.83607 
-46.7678 96.3776 40.6187 -62.5582 -84.9054 -62.4335 -171.734 8.10984 91.5252 -11.4043 5.6175 -0.617085 61.3645 4.49857 12.7989 38.0629 8.59909 -32.7631 177.391 4.2122 88.9362 -7.08525 3.74051 -0.257482 69.7752 -4.41583 -2.39271 25.221 -1.31033 11.4875 -0.0425935 6.63762 -90.0915 13.6086 -0.128792 -0.166329 1.93763 -0.135992 -0.160501 -20.5975 -0.0728533 -0.19735 -0.584804 -0.0728476 -0.197345 81.3178 -49.5826 -114.098 26.8329 -12.6516 4.25824 -2.87841 -13.9541 -37.4592 -7.39617 -0.69183 5.08621 -101.772 -42.8409 58.4423 -29.1852 12.6357 1.56679 2.18586 10.8441 -29.157 12.0866 1.1202 5.15251 14.097 2.918 1.87491 -6.82955 2.34649 1.85138 
-46.7409 96.1731 40.5988 -62.2021 -84.926 -61.9991 -171.739 9.02661 91.6399 -13.1243 5.77321 -0.640487 62.0511 4.57011 13.0037 38.7797 8.99372 -33.7515 177.228 4.15868 88.9008 -7.34787 2.75216 -0.0864603 72.3554 -5.27389 -2.76031 22.9615 -1.57745 10.5895 -0.0483621 6.63358 -90.091 13.614 -0.140028 -0.163909 1.94307 -0.147107 -0.157595 -20.592 -0.0842993 -0.198422 -0.579381 -0.0842946 -0.198422 81.2137 -49.6685 -114.22 26.8948 -12.5431 4.2774 -3.05029 -13.9774 -37.4237 -7.33742 -0.698849 5.29545 -101.647 -42.8172 58.6237 -29.1295 12.7262 1.5708 2.17455 10.928 -29.1563 11.9477 1.11184 5.17901 14.027 2.855 1.56676 -6.84438 2.36654 2.0839 
-46.767 96.0131 40.6113 -61.5462 -84.999 -61.3744 -171.746 9.6977 91.6365 -14.4976 5.41678 -0.630248 62.6973 4.32885 12.3479 39.2351 9.2854 -33.3826 177.219 4.04637 88.8759 -7.46016 2.13968 -0.0932073 74.4711 -5.97879 -3.02688 21.3651 -1.70439 9.63999 -0.0564289 6.63173 -90.0943 13.61 -0.157604 -0.16831 1.93904 -0.164861 -0.161213 -20.5961 -0.0997449 -0.207893 -0.583421 -0.0997341 -0.207895 81.2171 -49.7643 -114.179 26.6489 -12.5996 4.1631 -2.75449 -13.9466 -37.2897 -7.4636 -0.70466 5.23205 -101.747 -42.8714 58.494 -29.1446 12.6295 1.50859 2.21462 11.0434 -29.0489 12.2656 1.14763 5.24794 13.8155 2.81228 1.77983 -6.59866 2.27772 1.75413 
-46.7697 95.8867 40.6167 -63.3495 -84.966 -63.2282 -171.749 10.0003 91.6017 -15.3569 5.67541 -0.662965 63.1998 4.84382 13.4033 38.1627 8.55841 -35.142 176.966 3.91683 88.7162 -7.6651 1.24346 0.0626426 76.076 -6.56789 -3.23921 19.7951 -1.84298 8.97973 -0.0458858 6.64906 -90.0932 13.5756 -0.13616 -0.169047 1.90467 -0.143469 -0.162889 -20.6304 -0.0790607 -0.202154 -0.617776 -0.0790604 -0.202152 81.1306 -49.7068 -114.329 26.7588 -12.3988 4.28523 -3.39559 -13.7539 -37.3536 -6.97778 -0.671058 5.30467 -101.804 -42.9647 58.4493 -29.0767 12.6866 1.52127 2.18268 10.917 -29.1915 12.4834 1.18675 5.40383 13.7947 2.7136 1.7252 -6.49926 2.19772 1.71231 
-46.7894 95.8039 40.6443 -61.4535 -85.0826 -61.3787 -171.751 10.3328 91.5832 -15.8804 5.73038 -0.698056 63.584 4.95049 13.2645 38.7017 8.85301 -35.589 177.043 3.90752 88.7175 -7.66519 1.22645 -0.00617113 76.9516 -6.85877 -3.32992 19.2699 -1.87238 8.67057 -0.0597725 6.64404 -90.0944 13.5866 -0.164315 -0.167834 1.91568 -0.171539 -0.160447 -20.6194 -0.106277 -0.209449 -0.606773 -0.106278 -0.20946 81.2535 -49.6262 -114.177 26.73 -12.5038 4.11815 -2.71609 -13.5026 -37.1885 -7.62114 -0.716938 5.2606 -101.864 -42.9274 58.3411 -29.1206 12.6322 1.51687 2.25538 10.9406 -29.3042 12.4415 1.19188 5.47061 13.8503 2.78203 1.58349 -6.65304 2.29779 1.87977 
-46.8056 95.7987 40.6527 -62.2137 -85.0545 -62.1607 -171.772 10.2923 91.564 -15.9237 5.67483 -0.667827 63.679 4.94967 13.0904 37.7948 8.36778 -34.4774 177 3.86457 88.6874 -7.67864 1.09502 0.0128667 77.0437 -6.89129 -3.34076 18.9687 -1.94085 8.8433 -0.0584923 6.65192 -90.0959 13.5736 -0.162463 -0.170928 1.90265 -0.169826 -0.163612 -20.6325 -0.103582 -0.211843 -0.619816 -0.103585 -0.211853 81.263 -49.5686 -114.185 26.7739 -12.5027 4.12362 -2.92308 -13.5932 -37.3144 -7.44603 -0.721135 5.57595 -101.856 -43.0087 58.3893 -29.1448 12.4812 1.39961 2.26811 10.9692 -29.0932 12.5751 1.16703 5.19448 13.7909 2.6986 1.51916 -6.66523 2.2341 2.04851 
-46.8061 95.8864 40.6678 -61.5688 -85.1126 -61.602 -171.809 10.0016 91.4683 -15.3037 5.58475 -0.647134 63.2297 4.78719 13.0749 38.8192 8.9323 -35.3733 176.946 3.90265 88.6077 -7.60745 1.40701 0.0239588 76.1583 -6.57138 -3.23528 19.9044 -1.81613 8.89595 -0.0583206 6.64865 -90.0846 13.5763 -0.156639 -0.149079 1.90537 -0.163042 -0.142045 -20.6298 -0.104595 -0.189263 -0.617109 -0.104593 -0.189263 81.3941 -49.6203 -113.969 26.8697 -12.5082 4.04471 -2.80297 -13.7247 -37.1868 -7.54407 -0.73848 5.74677 -101.813 -42.9343 58.4216 -29.2166 12.4855 1.30913 2.18594 10.7785 -29.0499 12.8212 1.21812 5.41823 13.8463 2.69732 1.41617 -6.94337 2.25362 1.99056 
-46.8178 96.0651 40.7076 -63.0457 -85.071 -63.0282 -171.727 9.22863 91.5326 -13.964 5.82292 -0.6937 62.6519 4.86644 13.3311 37.7152 8.31641 -34.5949 177.131 3.85539 88.7481 -7.40974 2.24283 -0.119598 73.9587 -5.80062 -2.96021 21.7187 -1.67994 9.86076 -0.0443565 6.65878 -90.0947 13.5562 -0.133836 -0.172364 1.88523 -0.141289 -0.166312 -20.6499 -0.0758411 -0.204617 -0.637206 -0.0758506 -0.204623 81.352 -49.6776 -114.01 26.7807 -12.4553 4.09597 -3.14503 -13.8304 -37.3424 -7.3875 -0.730398 5.82049 -101.95 -42.9807 58.232 -29.1594 12.4563 1.32812 2.20644 10.783 -29.1016 12.5933 1.18489 5.31747 13.9205 2.7127 1.38056 -6.96534 2.276 2.11677 
